<?xml version="1.0" encoding="UTF-8"?>
<svg id="Capa_1" data-name="Capa 1" xmlns="http://www.w3.org/2000/svg" viewBox="0 0 29.83 36.12">
  <defs>
    <style>
      .cls-1 {
        fill: #010002;
        stroke-width: 0px;
      }
    </style>
  </defs>
  <path class="cls-1" d="M.69,32.29c.46.46,1.06.69,1.66.69s1.2-.23,1.66-.69l2.39-2.39c1.48,1.04,3.17,1.81,4.98,2.23v1.36c0,1.2.85,2.22,2.05,2.63v-7.79h0c-.66-.09-1.31-.22-1.92-.41-.04-.01-.08-.03-.13-.04-.72-.23-1.39-.54-2.03-.92-1.37-.8-2.53-1.91-3.4-3.23-1.07-1.63-1.7-3.57-1.7-5.67s.63-4.04,1.7-5.67c.87-1.32,2.04-2.42,3.4-3.23.64-.37,1.32-.69,2.03-.92.04-.01.08-.03.13-.04.62-.19,1.26-.32,1.92-.4h0V0c-1.2.4-2.05,1.43-2.05,2.63v1.36c-1.82.42-3.5,1.18-4.98,2.23l-2.39-2.39c-.92-.92-2.4-.92-3.32,0-.92.92-.92,2.4,0,3.32l2.36,2.36C1.3,11.9.27,14.86.27,18.06s1.03,6.16,2.78,8.55l-2.36,2.36c-.92.92-.92,2.4,0,3.32Z"/>
  <path class="cls-1" d="M15.68,0v7.79h0c.66.09,1.31.22,1.92.41.04.01.08.03.13.04.89.29,1.72.69,2.49,1.19,1.32.87,2.42,2.04,3.23,3.4.9,1.53,1.42,3.31,1.42,5.21s-.52,3.68-1.42,5.21c-.8,1.37-1.91,2.53-3.23,3.4-.76.5-1.6.91-2.49,1.2-.04.01-.08.03-.13.04-.62.19-1.26.32-1.92.4h0v7.81c1.2-.4,2.05-1.43,2.05-2.63v-1.36c1.99-.46,3.83-1.33,5.41-2.53l2.69,2.69c.46.46,1.06.69,1.66.69s1.2-.23,1.66-.69c.92-.92.92-2.4,0-3.32l-2.79-2.79c1.56-2.32,2.48-5.11,2.48-8.13s-.92-5.81-2.48-8.13l2.79-2.79c.92-.92.92-2.4,0-3.32-.91-.92-2.4-.92-3.32,0l-2.69,2.69c-1.58-1.2-3.41-2.08-5.41-2.53v-1.36c0-1.2-.85-2.22-2.05-2.63Z"/>
  <path class="cls-1" d="M14.55,16.62c-.46,0-.86.22-1.13.56-.19.24-.31.55-.31.88s.12.64.31.88c.26.34.67.56,1.13.56s.86-.22,1.13-.56c.19-.24.31-.55.31-.88s-.12-.64-.31-.88c-.26-.34-.67-.56-1.13-.56Z"/>
</svg>